<svg id="Capa_1" enable-background="new 0 0 512 512" height="512" viewBox="0 0 512 512" width="512" xmlns="http://www.w3.org/2000/svg" xmlns:xlink="http://www.w3.org/1999/xlink"><linearGradient id="SVGID_1_" gradientUnits="userSpaceOnUse" x1="256" x2="256" y1="512" y2="0"><stop offset="0" stop-color="#fd3a84"/><stop offset="1" stop-color="#ffa68d"/></linearGradient><g><g><g><path d="m502.248 90.948-241-90c-3.384-1.264-7.111-1.264-10.495 0l-241 90c-5.865 2.19-9.753 7.792-9.753 14.052v392c0 8.284 6.716 15 15 15h61c8.284 0 15-6.716 15-15v-227h330v227c0 8.284 6.716 15 15 15h61c8.284 0 15-6.716 15-15v-392c0-6.26-3.888-11.862-9.752-14.052zm-81.248 149.052h-330v-30h330zm61 242h-31v-287c0-8.284-6.716-15-15-15h-360c-8.284 0-15 6.716-15 15v287h-31v-366.59l226-84.398 226 84.398zm-271-347c0 8.284 6.716 15 15 15h60c8.284 0 15-6.716 15-15s-6.716-15-15-15h-60c-8.284 0-15 6.716-15 15zm165 257h-60v-75.001c0-8.284-6.716-15-15-15h-90c-8.284 0-15 6.716-15 15v75.001h-60c-8.284 0-15 6.716-15 15v90c0 8.284 6.716 15 15 15h90c8.284 0 15-6.716 15-15v-75.001h30v75.001c0 8.284 6.716 15 15 15h90c8.284 0 15-6.716 15-15v-90c0-8.284-6.716-15-15-15zm-165 90h-60v-60h60zm75-90.001h-60v-60h60zm75 90.001h-60v-60h60zm-15-332h60c8.284 0 15-6.716 15-15s-6.716-15-15-15h-60c-8.284 0-15 6.716-15 15s6.716 15 15 15zm-180-30h-60c-8.284 0-15 6.716-15 15s6.716 15 15 15h60c8.284 0 15-6.716 15-15s-6.716-15-15-15z" fill="url(#SVGID_1_)"/></g></g></g></svg>